<?xml version="1.0"?>
<svg xmlns="http://www.w3.org/2000/svg" height="512px" viewBox="0 0 128 128" width="512px"><g><g><path d="m115.994 86.589a18.093 18.093 0 0 0 -11.68-10.695 36.824 36.824 0 1 0 -65.908-22.583 37.1 37.1 0 0 0 .277 4.305 20.887 20.887 0 0 0 -3.213 4.518 16.663 16.663 0 0 0 -24.531 7.7 11.471 11.471 0 0 0 .532 22.929h25.088a12.448 12.448 0 0 0 10.751 18.754h68.221a12.468 12.468 0 0 0 .463-24.928zm-40.76-66.606a33.315 33.315 0 0 1 25.135 55.2c-.423-.029-.85-.048-1.28-.048a18.176 18.176 0 0 0 -10.089 3.053 22.663 22.663 0 0 0 -14.966-11.7 20.869 20.869 0 0 0 -32.075-11.718c-.022-.488-.053-.979-.053-1.459a33.366 33.366 0 0 1 33.328-33.328zm-71.734 61.306a7.98 7.98 0 0 1 7.971-7.971c.16 0 .317.013.567.031a1.746 1.746 0 0 0 1.792-1.219 13.16 13.16 0 0 1 21.17-5.974 1.75 1.75 0 0 0 2.772-.675 17.443 17.443 0 0 1 3.82-5.83 1.749 1.749 0 0 0 .308-.306 17.349 17.349 0 0 1 28.29 6.568c-.482-.03-.968-.05-1.457-.05a22.935 22.935 0 0 0 -22.733 20.785 12.4 12.4 0 0 0 -6.4 2.612h-28.129a7.98 7.98 0 0 1 -7.971-7.971zm112.031 26.728h-68.221a8.968 8.968 0 0 1 0-17.936l.3.016a1.716 1.716 0 0 0 1.265-.482 1.75 1.75 0 0 0 .543-1.239 19.282 19.282 0 0 1 22.819-18.685q.041.009.081.015a19.211 19.211 0 0 1 14.374 11.846 1.751 1.751 0 0 0 2.774.675 14.69 14.69 0 0 1 23.634 6.673 1.847 1.847 0 0 0 1.886 1.212c.18-.012.36-.026.543-.026a8.968 8.968 0 1 1 0 17.936z" data-original="#000000" class="active-path" data-old_color="#000000" fill="#FFFFFF"/><path d="m81.328 40.592a6.2 6.2 0 1 0 -6.2-6.2 6.21 6.21 0 0 0 6.2 6.2zm0-8.906a2.7 2.7 0 1 1 -2.7 2.7 2.706 2.706 0 0 1 2.7-2.7z" data-original="#000000" class="active-path" data-old_color="#000000" fill="#FFFFFF"/><path d="m84.875 53.983a8.922 8.922 0 1 0 8.925-8.922 8.932 8.932 0 0 0 -8.925 8.922zm8.925-5.422a5.422 5.422 0 1 1 -5.422 5.422 5.428 5.428 0 0 1 5.422-5.422z" data-original="#000000" class="active-path" data-old_color="#000000" fill="#FFFFFF"/></g></g> </svg>
