<?xml version="1.0"?>
<svg xmlns="http://www.w3.org/2000/svg" height="512px" viewBox="0 0 128 128" width="512px" class=""><g><g><path d="m64 0a64 64 0 1 0 64 64 64.072 64.072 0 0 0 -64-64zm0 124.5a60.5 60.5 0 1 1 60.5-60.5 60.569 60.569 0 0 1 -60.5 60.5z" data-original="#000000" class="active-path" data-old_color="#000000" fill="#FFFFFF"/><path d="m23.018 31.576a1.748 1.748 0 0 0 -2.448.365 53.519 53.519 0 0 0 -10.57 32.059 1.75 1.75 0 0 0 3.5 0 50.043 50.043 0 0 1 9.883-29.977 1.75 1.75 0 0 0 -.365-2.447z" data-original="#000000" class="active-path" data-old_color="#000000" fill="#FFFFFF"/><path d="m74.814 20.769a9.652 9.652 0 1 0 9.653 9.652 9.663 9.663 0 0 0 -9.653-9.652zm0 15.8a6.152 6.152 0 1 1 6.153-6.152 6.159 6.159 0 0 1 -6.153 6.156z" data-original="#000000" class="active-path" data-old_color="#000000" fill="#FFFFFF"/><path d="m32.95 74.043a11.95 11.95 0 1 0 11.95 11.95 11.963 11.963 0 0 0 -11.95-11.95zm0 20.4a8.45 8.45 0 1 1 8.45-8.45 8.459 8.459 0 0 1 -8.45 8.45z" data-original="#000000" class="active-path" data-old_color="#000000" fill="#FFFFFF"/><path d="m98.982 50.715a16.518 16.518 0 1 0 16.518 16.518 16.537 16.537 0 0 0 -16.518-16.518zm0 29.536a13.018 13.018 0 1 1 13.018-13.018 13.033 13.033 0 0 1 -13.018 13.018z" data-original="#000000" class="active-path" data-old_color="#000000" fill="#FFFFFF"/></g></g> </svg>
